<svg xmlns="http://www.w3.org/2000/svg" viewBox="0 0 519.36 197.62">
    <defs>
        <style>
            .cls-1,.cls-3{fill:none;stroke:#1b2855;stroke-miterlimit:10;}.cls-1{stroke-width:4.72px;}.cls-2{fill:#f27236;}.cls-3{stroke-width:3.63px;}.cls-4{fill:#1b2855;}
        </style>
    </defs>
    <title>sip-h-logo</title>
    <g id="Layer_2" data-name="Layer 2">
        <g id="Layer_2-2" data-name="Layer 2">
            <path class="cls-1" d="M81.84,135.61A39.9,39.9,0,0,1,30.19,76.4"/>
            <path class="cls-1" d="M113.07,112.06A52.87,52.87,0,0,1,8.41,101.41a53.44,53.44,0,0,1,.41-6.62"/>
            <path class="cls-1" d="M125.21,80.24A67.35,67.35,0,0,1,2.07,133.5"/>
            <path class="cls-1" d="M115.14,40.52A81.31,81.31,0,0,1,22.77,173"/>
            <path class="cls-1" d="M70.71,7.61A94.27,94.27,0,0,1,70,195.27"/>
            <path class="cls-2" d="M70,7.61a5.8,5.8,0,1,1-5.8-5.8A5.8,5.8,0,0,1,70,7.61"/>
            <circle class="cls-3" cx="64.22" cy="7.61" r="5.8"/>
            <path class="cls-2" d="M116.59,38.65a5.8,5.8,0,1,1-5.8-5.8,5.8,5.8,0,0,1,5.8,5.8"/>
            <circle class="cls-3" cx="110.79" cy="38.65" r="5.8"/>
            <path class="cls-2" d="M128.19,76.4a5.8,5.8,0,1,1-5.8-5.8,5.8,5.8,0,0,1,5.8,5.8"/>
            <circle class="cls-3" cx="122.39" cy="76.4" r="5.8"/>
            <path class="cls-2" d="M118.87,107.24a5.8,5.8,0,1,1-5.8-5.8,5.8,5.8,0,0,1,5.8,5.8"/>
            <circle class="cls-3" cx="113.07" cy="107.24" r="5.8"/>
            <path class="cls-2" d="M91.94,130.44a5.8,5.8,0,1,1-5.8-5.8,5.8,5.8,0,0,1,5.8,5.8"/>
            <circle class="cls-3" cx="86.14" cy="130.44" r="5.8"/>
            <path class="cls-4"
                  d="M181.64,119.28c1.35,6.67,4.58,11.56,11.88,11.56,5.73,0,10.21-3.12,10.21-9.17,0-6.67-5.63-8.33-10.94-10.52-7.92-3.33-15.42-5.42-15.42-15.63,0-9.17,7.4-14.27,15.94-14.27,9.06,0,14.38,5.21,16.56,13.65l-6.67,2c-1.25-5.31-4.06-9.06-10-9.06-4.48,0-8.85,2.29-8.85,7.19,0,5.1,3.13,6.56,7.29,8.44l11.56,5.1a13.81,13.81,0,0,1,7.5,12.71c0,10.31-7.19,16.15-17.19,16.15s-16.46-6.46-18.13-16.15Z"/>
            <path class="cls-4" d="M222,82.2h33.86v6.25H228.93V104.7h22.19v6.25H228.93v19.27h26.88v6.25H222Z"/>
            <path class="cls-4"
                  d="M300.18,126.06c-4.37,6.88-9.58,11.35-18,11.35-15.83,0-20.83-14.58-20.83-28,0-21.67,11.46-28.13,20.21-28.13,8.44,0,13.33,4.38,17.19,11.56l-6.35,3.23c-2.29-4.38-5.42-8.23-10.73-8.23-10.83,0-13,13.13-13,21.46s2,21.56,13,21.56c6.35,0,9.58-3.85,12.81-8.75Z"/>
            <path class="cls-4"
                  d="M314.56,82.2v37c0,7.92,2.29,11.67,9.48,11.67,8.75,0,10.63-3.85,10.63-11.67v-37h7v40.31c0,7.19-5.1,14.9-17.08,14.9-11.77,0-17-7.4-17-15.31V82.2Z"/>
            <path class="cls-4"
                  d="M352.68,82.2h18.44c9.06,0,16.25,4.27,16.25,14.79a16.11,16.11,0,0,1-11,15.21l13.33,22-6,3.65-13.86-24.58h-10.1v23.23h-7ZM368.83,107c6.77,0,11.25-3.85,11.25-10,0-4.9-2.92-8.54-9.17-8.54H359.66V107Z"/>
            <path class="cls-4" d="M397.37,82.2h33.86v6.25H404.35V104.7h22.19v6.25H404.35v19.27h26.88v6.25H397.37Z"/>
            <path class="cls-2" d="M444.36,130.22H452V88.45h-7.6V82.2h22.29v6.25h-7.71v41.77h7.71v6.25H444.36Z"/>
            <path class="cls-2"
                  d="M492,136.47h-7V82.2h16.88c12.6,0,17.5,6.88,17.5,14.79,0,11.46-8.13,16.15-15.73,16.15H492Zm9.58-29.58c6.88,0,10.52-3.12,10.52-9.38,0-7.4-4.79-9.06-10.52-9.06H492v18.44Z"/>
        </g>
    </g>
</svg>