<?xml version="1.0" encoding="UTF-8"?>
<svg width="208px" height="250px" viewBox="0 0 208 250" version="1.1" xmlns="http://www.w3.org/2000/svg" xmlns:xlink="http://www.w3.org/1999/xlink">
    <!-- Generator: Sketch 46.2 (44496) - http://www.bohemiancoding.com/sketch -->
    <title>Page 1</title>
    <desc>Created with Sketch.</desc>
    <defs></defs>
    <g id="App-Atel-theme" stroke="none" stroke-width="1" fill="none" fill-rule="evenodd">
        <g id="01-splash-screen" transform="translate(-76.000000, -145.000000)">
            <g id="Page-1" transform="translate(76.000000, 145.000000)">
                <path d="M23.9696749,104.368268 C23.9696749,61.1411071 58.2771435,25.7730147 101.146535,23.9224904 C100.624682,23.6220523 100.2562,23.0819169 100.2562,22.4370636 C100.2562,21.4760972 101.037015,20.6971353 102,20.6971353 L95.0265435,20.6971353 C94.063559,20.6971353 93.2825249,19.9181734 93.2825249,18.9574247 C93.2825249,17.9964583 94.063559,17.2177141 95.0265435,17.2177141 L102,17.2177141 C101.037015,17.2177141 100.2562,16.4387522 100.2562,15.4780035 C100.2562,14.517037 101.037015,13.7380751 102,13.7380751 L95.0265435,13.7380751 C94.063559,13.7380751 93.2825249,12.9593309 93.2825249,11.9983645 C93.2825249,11.0376158 94.063559,10.2586539 95.0265435,10.2586539 L102,10.2586539 C101.037015,10.2586539 100.2562,9.47969202 100.2562,8.51872561 C100.2562,7.55819461 101.037015,6.77923271 102,6.77923271 L95.0265435,6.77923271 C94.063559,6.77923271 93.2825249,6.00027081 93.2825249,5.03930439 C93.2825249,4.07855569 94.063559,3.2998115 95.0265435,3.2998115 L102,3.2998115 C101.037015,3.2998115 100.2562,2.5208496 100.2562,1.55988318 C100.2562,0.866916235 100.67006,0.279755741 101.256927,0 C45.1178096,1.80981282 0,47.9148653 0,104.368268 C0,150.25387 30.753327,191.429996 74.7875064,204.500794 C75.9272053,204.839549 77.0778125,205 78.2098756,205 C83.3745182,205 88.1442804,201.640754 89.6921678,196.447747 C91.5790852,190.115906 87.9656025,183.457284 81.6215548,181.573886 C47.6768962,171.498107 23.9696749,139.74964 23.9696749,104.368268 Z" id="Fill-3" fill="#FF7F2F"></path>
                <path d="M109.889438,0 C110.366576,0.311159029 110.701073,0.824516836 110.701073,1.43766389 C110.701073,2.40171099 109.92145,3.18277474 108.960859,3.18277474 L102,3.18277474 C102.960592,3.18277474 103.739997,3.96405685 103.739997,4.92766723 C103.739997,5.89149596 102.960592,6.67277807 102,6.67277807 L108.960859,6.67277807 C109.92145,6.67277807 110.701073,7.45384182 110.701073,8.4174522 C110.701073,9.38128094 109.92145,10.1625631 108.960859,10.1625631 L102,10.1625631 C102.960592,10.1625631 103.739997,10.9438452 103.739997,11.9074555 C103.739997,12.8712843 102.960592,13.652348 102,13.652348 L108.960859,13.652348 C109.92145,13.652348 110.701073,14.4336301 110.701073,15.3972405 C110.701073,16.3610693 109.92145,17.142133 108.960859,17.142133 L102,17.142133 C102.960592,17.142133 103.739997,17.9234151 103.739997,18.8872439 C103.739997,19.8508542 102.960592,20.6321363 102,20.6321363 L108.960859,20.6321363 C109.92145,20.6321363 110.701073,21.4134185 110.701073,22.3772472 C110.701073,23.1628964 110.172977,23.8024647 109.460427,24.0208219 C151.111902,27.0852471 184.073845,62.0195625 184.073845,104.552491 C184.073845,139.934657 161.495916,170.88439 127.892634,181.566425 C121.594238,183.56876 118.107057,190.310976 120.103372,196.626522 C122.10121,202.940539 128.827529,206.438621 135.122659,204.435631 C178.712738,190.5789 208,150.438512 208,104.552491 C208,48.9321046 164.543632,3.31662771 109.889438,0" id="Fill-6" fill="#FF7F2F"></path>
                <path d="M118,197.5 C118,204.403489 112.40344,210 105.49989,210 C98.5963411,210 93,204.403489 93,197.5 C93,190.596511 98.5963411,185 105.49989,185 C112.40344,185 118,190.596511 118,197.5" id="Fill-1" fill="#FF7F2F"></path>
                <path d="M171,104.608058 C171,67.8213888 141.226991,38 104.5,38 C67.7730095,38 38,67.8213888 38,104.608058 C38,138.926463 63.9131486,167.178556 97.209344,170.816045 C99.4386252,173.607229 103.699423,178 108.438188,178 C108.438188,178 109.976809,177.710674 109.066532,175.585915 C108.687015,174.700383 108.743272,172.9926 109.065666,171.056825 C143.662258,168.706674 171,139.857291 171,104.608058" id="Fill-8" fill="#009BDE"></path>
                <path d="M54.0528576,246.60608 L40.0131443,246.60608 L38.456843,250 L32,250 L44.847684,222 L49.152316,222 L62,250 L55.609159,250 L54.0528576,246.60608 Z M51.3377381,240.666667 L47.0331061,231.299293 L42.728474,240.666667 L51.3377381,240.666667 Z" id="Combined-Shape" fill="#555759"></path>
                <polygon id="Fill-12" fill="#555759" points="95 222 95 227.939414 88.0434975 227.939414 88.0434975 250 81.9565025 250 81.9565025 227.939414 75 227.939414 75 222"></polygon>
                <polygon id="Fill-15" fill="#555759" points="133 222 133 227.939414 120.727499 227.939414 120.727499 233.030186 130.545625 233.030186 130.545625 238.969814 120.727499 238.969814 120.727499 244.060802 133 244.060802 133 250 115 250 115 222"></polygon>
                <polygon id="Fill-18" fill="#555759" points="156 222 162 222 162 244.060802 174 244.060802 174 250 156 250"></polygon>
            </g>
        </g>
    </g>
</svg>