<svg xmlns="http://www.w3.org/2000/svg" viewBox="0 0 131.74 40"><defs><style>.cls-1{fill:#fff;}</style></defs><title>web</title><g id="Layer_2" data-name="Layer 2"><g id="Layer_1-2" data-name="Layer 1"><rect id="background" width="131.74" height="40" rx="4" ry="4"/><path class="cls-1" d="M72.1,30.42h0a2.53,2.53,0,0,1-1,.45H47.2a2.53,2.53,0,0,1-1-.45h0v-.61c0-.14.13-.2.27-.2h9.59l.15.16h6.11l.16-.16h9.41c.14,0,.21.06.21.2Zm-27.54-.07h-.22s-1-.26-1.25-2.68h-6c-.28,2.38-1.29,2.68-1.29,2.68h-.19c-.07,0-.07.14-.07.22v.37c0,.07,0,.16.07.16h9a.18.18,0,0,0,.16-.16v-.37C44.72,30.49,44.64,30.35,44.56,30.35ZM69.43,16.09V29.38H48.65V27.23H28.18c-.46,0-.9-.6-.9-1.06V9.59c0-.46.44-.69.9-.69H52a.63.63,0,0,1,.71.69v6.07H69A.38.38,0,0,1,69.43,16.09ZM28.54,22.93H51.4V10.24H28.54Zm40.22-6.31H52.66v9.55c0,.46-.26,1.06-.71,1.06H49.47v1.11H68.76Z"/><path class="cls-1" d="M79.88,26.67l-2.49-9.42h2L80.83,24h.07l1.67-6.72h1.62L85.85,24h.07l1.46-6.72h2l-2.49,9.42H85.15l-1.74-6.53h-.07L81.6,26.67Z"/><path class="cls-1" d="M89.68,23.31v-.67a3.25,3.25,0,1,1,6.48,0v.72h-4.7v.2A1.6,1.6,0,0,0,93,25.42a1.3,1.3,0,0,0,1.38-1h1.69A2.83,2.83,0,0,1,93,26.8,3.14,3.14,0,0,1,89.68,23.31Zm4.72-1.06h0a1.48,1.48,0,1,0-2.94,0H94.4Z"/><path class="cls-1" d="M99.53,25.54h-.07v1.13h-1.8V16.76h1.83v3.65h.07a2.29,2.29,0,0,1,2.11-1.15c1.66,0,2.79,1.19,2.79,3.42v.65c0,2.18-1.1,3.44-2.8,3.44A2.23,2.23,0,0,1,99.53,25.54Zm3.06-2.28v-.5c0-1.35-.61-2.05-1.5-2.05s-1.62.7-1.62,2.05v.5c0,1.35.63,2.06,1.62,2.06S102.59,24.6,102.59,23.26Z"/></g></g></svg>