<svg xmlns="http://www.w3.org/2000/svg" viewBox="0 0 298 321.16"><defs><style>.cls-1{fill:#646284;}.cls-2{fill:#1b2755;}.cls-3{fill:#fff;}.cls-4{fill:none;stroke:#e95f07;stroke-miterlimit:10;stroke-width:5px;}</style></defs><title>12-years-anniversary-seal</title><g id="Layer_2" data-name="Layer 2"><g id="Layer_1-2" data-name="Layer 1"><path class="cls-1" d="M262.65,93c2.33,7.49,2.66,16.21.85,25.66-6.41,33.37-32.19,57.49-77.07,89.87l-60.11,44.61h59.81c18.17,0,23.51-2,45.45-26.77l7.5,4c-9.67,14.21-21.75,32.38-30.3,45.93H89.1A131.53,131.53,0,0,0,262.65,93Z"/><path class="cls-2" d="M206.29,87.88c-21.81,0-40.31,17.18-52.3,29.74l-5.94-6.94L174,84.24c14.32-10.9,30.85-17.84,47.7-17.84,11.53,0,20.91,2.93,27.94,8A131.49,131.49,0,0,0,40.1,232.81C51,229.93,54.6,224.08,62,205.24L109.72,82.32c7.25-18.83,5.52-20.15-13.58-20.48-3.31,0-9.52-.33-12.82-.33,1.16-2.65,2.52-6.28,3.69-8.93A297.94,297.94,0,0,0,153.42,35.4L87.76,205.24c-7.18,18.5-10.16,27.09,9.88,29.4,2.91.33,12.37,1,15.94,1.33l-4.09,9.25H49.62a132.27,132.27,0,0,0,36.06,29.17c.52-1.72,1.24-3.68,1.52-5.11,88.89-65.42,138.68-102.76,147-146C237.94,103.74,231.4,87.88,206.29,87.88Z"/><path class="cls-3" d="M183.21,124.72c-1.38.16-5.58.43-7.9.48-7.11,17.66-7.63,18.83-9,22.65-1,2.81-.75,3.48,0,3.48,1.55,0,4.56-1.88,7.78-4.75l.75,2.32c-3.73,4.15-11,9-15.44,9-3.44,0-4.47-2.58-.76-11.55l8.62-21.19H160.9l0-.73,3-3h4.83l3.41-8.44a76.58,76.58,0,0,0,9.49-5.15l.92.61c-1.49,3-4,8.8-5.74,13h8.66Z"/><path class="cls-3" d="M193.22,102.94a85.93,85.93,0,0,0,11.66-2.17,14.45,14.45,0,0,1,2.85-.64c.85,0,.78.91,0,2.7-3.82,9.51-8.59,21.19-12.46,30.69,6.54-7.09,15.49-13.05,20.95-13.05,3,0,5.65,1.44,1.13,12-1.95,4.57-4.61,10.75-6.62,15.34-.92,2.12-1,3-.37,3s2.91-1.07,5.95-3.7l.86,2.34c-5.47,5.49-12.15,8.48-15,8.48-2.56,0-3.21-2-.61-8.14,2.54-5.71,5.58-12.49,7.69-17.62,1.88-4.16,1.62-5.37.17-5.37-2.92,0-8.43,3.55-13.91,10.56a28.91,28.91,0,0,0-4.44,7.54c-1.42,3.37-3.37,8.32-4.49,11.35a71.33,71.33,0,0,0-8.57,1.68l-.38-.66c6.3-15.36,12.8-31.78,18.9-47.79,1.23-3.35.89-3.53-1.78-3.83-.76-.08-2.19-.24-2.67-.24Z"/><path class="cls-4" d="M37.65,254.32a146.51,146.51,0,0,1,0-190.41"/><path class="cls-4" d="M260.35,63.91a146.52,146.52,0,0,1,0,190.42"/><path d="M60,52.06l-1.1-1.47.47-3.2c1.21-7.63,1.5-11.41-.47-14.1-1.35-1.79-3.45-2.81-6-.87a7.36,7.36,0,0,0-2.56,4.26l-2-1.12a9.36,9.36,0,0,1,3.56-5.48c3.74-2.81,7.28-1.38,9.17,1.15,2.45,3.26,2.11,7.65,1.14,14l-.41,2.34,0,.06,7.8-5.85,1.49,2Z"/><path d="M83.63,23.51c3.6,6.6,3.18,11.55-1,13.85-3.73,2-8.18-.15-11.74-6.54S68.11,19.22,72,17.12,80.27,17.32,83.63,23.51ZM73.45,29.44c2.75,5.05,5.83,7.09,8.18,5.81C84.27,33.81,83.82,30,81.12,25c-2.6-4.78-5.51-7.26-8.18-5.8C70.68,20.46,70.57,24.16,73.45,29.44Z"/><path d="M103.9,15.48c2.6,7.06,1.46,11.9-3.05,13.56-4,1.46-8.07-1.34-10.66-8.17s-1-11.88,3.1-13.4C97.58,5.89,101.46,8.88,103.9,15.48ZM93,19.88c2,5.39,4.74,7.85,7.25,6.93,2.82-1,2.93-4.89,1-10.18-1.89-5.11-4.41-8-7.26-6.93C91.52,10.59,90.87,14.23,93,19.88Z"/><path d="M121.32,2.4a10.6,10.6,0,0,0-2.13.58,8.92,8.92,0,0,0-5.77,9.24l.1,0a6.41,6.41,0,0,1,4.6-3.57c3.76-.79,7,1.41,7.88,5.64.83,4-1,8.18-5.45,9.1s-8.27-2-9.46-7.64a14.07,14.07,0,0,1,1.54-10.5A11.69,11.69,0,0,1,118.76.61a13,13,0,0,1,2-.61Zm1.81,12.65c-.66-3.1-2.78-4.6-5.43-4a4.81,4.81,0,0,0-3.55,3.53,2.53,2.53,0,0,0-.06,1.36c.82,3.55,3,5.84,6,5.21C122.55,20.59,123.78,18.14,123.13,15.05Z"/><path d="M151.89,9.72l0,2.21-8.25.13,0-2.21Z"/><path d="M168.59,21.27l.34-1.81,2.7-1.8c6.46-4.22,9.46-6.55,10.12-9.82.43-2.2-.23-4.44-3.41-5a7.27,7.27,0,0,0-4.88,1l-.52-2.25a9.47,9.47,0,0,1,6.46-1c4.59.89,5.91,4.47,5.31,7.57-.77,4-4.25,6.7-9.59,10.24l-2,1.27v.07l9.58,1.85-.47,2.43Z"/><path d="M205.63,19.63c-2.48,7.09-6.44,10.1-11,8.51-4-1.4-5.38-6.17-3-13.09s6.76-9.81,10.92-8.35C206.87,8.21,208,13,205.63,19.63ZM194.4,16.05c-1.9,5.43-1.34,9.08,1.18,10,2.83,1,5.37-1.91,7.23-7.23,1.8-5.14,1.69-9-1.18-10C199.2,8,196.38,10.38,194.4,16.05Z"/><path d="M221.74,18.43l-.06,0-4.31.08.56-2.28,5.4-.09,2.22,1.16L215.3,36.85l-2.51-1.31Z"/><path d="M227.86,37.61c1.64-2.25,4.12-2.89,7-2.26l0-.1a5.51,5.51,0,0,1,.13-6c2.06-2.83,5.81-3.06,8.89-.82,3.41,2.47,3.53,5.88,1.92,8.11a5.63,5.63,0,0,1-5.93,2.08l-.06.09c1.55,2.46,1.77,5,.19,7.19-2.25,3.11-6.39,3.3-9.75.87C226.57,44.06,226,40.23,227.86,37.61Zm9.54,6.75c1.58-2.17.85-4.3-1-6.71-2.49-.88-4.6-.31-5.84,1.4a4.06,4.06,0,0,0,1,6C233.71,46.55,236.07,46.21,237.4,44.36Zm-.05-13.69c-1.3,1.79-.67,3.72,1,5.74,1.89.57,3.85.31,5-1.31a3.41,3.41,0,0,0-.86-5.08A3.48,3.48,0,0,0,237.35,30.67Z"/><path d="M55.08,282.19,49,286.65l-2.43-1.76,19.63-14.08L69,272.87l-7.22,23.06-2.51-1.82,2.28-7.24Zm7.34,2.45L64.5,278c.47-1.5,1-2.8,1.51-4.07l-.06,0c-1.07.91-2.18,1.82-3.35,2.7l-5.68,4.08Z"/><path d="M67.26,299.22l10.53-20.36,2.81,1.46,1.09,13.61a64.82,64.82,0,0,1,.17,8.47h.07c1.17-2.84,2.39-5.35,4-8.52l4.4-8.52,2.43,1.25L82.27,307l-2.61-1.35-1-13.61a74.06,74.06,0,0,1-.22-8.73l-.11,0c-1.17,2.65-2.38,5.13-4.13,8.51l-4.49,8.7Z"/><path d="M89.87,310.18l7.23-21.74,3,1,3.18,13.27a64.34,64.34,0,0,1,1.49,8.34h.07c.72-3,1.53-5.66,2.66-9l3-9.1,2.6.86-7.23,21.75-2.79-.93L100,301.29a73.07,73.07,0,0,1-1.58-8.58h-.1c-.76,2.8-1.56,5.43-2.77,9L92.47,311Z"/><path d="M121,295.36l-4.81,22.4-2.84-.61,4.81-22.4Z"/><path d="M128.53,319.8l-4.69-23.6,3.12.36,2.2,11.61c.61,3.19,1.12,6.05,1.41,8.79h.07c.93-2.57,2.19-5.33,3.52-8.19L139.24,298l3.08.36-10.61,21.85Z"/><path d="M156.48,310.23l-8.75.14.14,8.26,9.74-.15,0,2.48-12.65.2-.37-22.91,12.15-.2,0,2.49-9.25.14.12,7.25,8.75-.14Z"/><path d="M161.11,298.1a29,29,0,0,1,5.46-1.2c3.08-.41,5.14-.1,6.7,1A5.78,5.78,0,0,1,175.6,302a6,6,0,0,1-3.44,6.35l0,.1c1.8.38,3,1.86,3.88,4.15a36.56,36.56,0,0,0,2.55,6l-3,.4a30.26,30.26,0,0,1-2.21-5.23c-1.08-3.05-2.43-4.07-5-3.83l-2.72.36,1.31,9.84-2.88.38Zm4.25,10,2.94-.39c3.08-.41,4.81-2.39,4.46-5-.39-2.94-2.64-3.94-5.69-3.57a11.86,11.86,0,0,0-2.81.64Z"/><path d="M183.24,313.88a10.09,10.09,0,0,0,5.41.13c2.88-.75,4.15-2.73,3.57-5-.54-2.07-2-3-5.25-3.33-3.89-.36-6.58-1.66-7.39-4.79-.91-3.45,1.23-6.75,5.47-7.86a10.14,10.14,0,0,1,5.09-.17l-.16,2.54a8.78,8.78,0,0,0-4.41,0c-3,.77-3.63,2.88-3.24,4.39.54,2.07,2.13,2.75,5.45,3.15,4.06.48,6.4,1.8,7.26,5.06.89,3.42-.83,7-6,8.37a11.42,11.42,0,0,1-5.93,0Z"/><path d="M203.76,304l.56,7.56-2.78,1.13L200,288.54l3.24-1.32L219,305.53l-2.87,1.17-4.95-5.76Zm6-4.93-4.53-5.28c-1-1.19-1.85-2.33-2.67-3.43l-.06,0c.21,1.38.39,2.81.52,4.27l.47,7Z"/><path d="M213.14,283a28.71,28.71,0,0,1,4.59-3.21c2.68-1.56,4.71-2.06,6.57-1.65a5.79,5.79,0,0,1,3.71,2.88,6,6,0,0,1-.74,7.19l0,.08c1.81-.34,3.53.56,5.18,2.35a36.57,36.57,0,0,0,4.66,4.57l-2.6,1.51a30.18,30.18,0,0,1-4.05-4c-2.16-2.4-3.8-2.82-6.13-1.59L222,292.55l5,8.59-2.52,1.46Zm7.74,7.57,2.58-1.49c2.68-1.56,3.52-4,2.21-6.31-1.49-2.56-3.95-2.62-6.63-1.11a12,12,0,0,0-2.35,1.67Z"/><path d="M245.87,288.94,240,281.2,226.32,275l2.64-2,6.35,3.11c1.74.85,3.12,1.56,4.64,2.4l.06,0c-.41-1.57-.7-3.23-1.06-5.13l-1.26-7,2.63-2,2,15,5.92,7.77Z"/></g></g></svg>