<svg viewBox="0 0 166 192" xmlns="http://www.w3.org/2000/svg">
    <link xmlns="" type="text/css" id="dark-mode" rel="stylesheet" href=""/>
    <style xmlns="" type="text/css" id="dark-mode-custom-style"/>
    <title>ITW</title>
    <g fill="none" fill-rule="evenodd">
        <path d="M82.63 0L0 48.058v95.9l82.63 47.84 82.633-47.84v-95.9L82.63 0z" fill="#000"/>
        <path d="M18.698 133.4h13.01V83.445h-13.01V133.4zM138.245 83.443l-6.737 28.974-9.433-18.9h-8.942l-9.434 18.9-6.738-28.974H83.45l11.797 50.086h12.67l9.687-19.64 9.687 19.64h12.67l11.798-50.087h-13.513zM79.586 83.443H64.82V63.17l-13.01 7.715v12.558H35.49V96.52h16.32v37.112h13.01V96.52h17.846l-3.08-13.077z"
              fill="#FEFEFE"/>
        <path d="M34.284 70.68c0 5.222-4.212 9.454-9.407 9.454-5.196 0-9.408-4.232-9.408-9.455s4.21-9.455 9.407-9.455c5.195 0 9.407 4.232 9.407 9.454"
              fill="#FFC720"/>
    </g>
</svg>