<svg xmlns="http://www.w3.org/2000/svg" viewBox="0 0 207.83 252.05"><defs><style>.cls-1{fill:#fff;}.cls-2{fill:#f37236;}.cls-3,.cls-4{fill:none;stroke:#fff;stroke-miterlimit:10;}.cls-3{stroke-width:4.36px;}.cls-4{stroke-width:3.27px;}</style></defs><title>logo-secureip</title><g id="Layer_2" data-name="Layer 2"><g id="Layer_1-2" data-name="Layer 1"><path class="cls-1" d="M3.78,240.85c.82,4,2.77,7,7.17,7,3.46,0,6.17-1.89,6.17-5.54,0-4-3.4-5-6.61-6.36-4.78-2-9.32-3.27-9.32-9.44,0-5.54,4.47-8.62,9.63-8.62,5.48,0,8.69,3.15,10,8.25l-4,1.2c-.75-3.21-2.45-5.48-6-5.48-2.71,0-5.35,1.38-5.35,4.34s1.89,4,4.41,5.1l7,3.08A8.34,8.34,0,0,1,21.34,242c0,6.23-4.34,9.76-10.39,9.76S1,247.9,0,242Z"/><path class="cls-1" d="M28.13,218.44H48.59v3.78H32.35V232H45.76v3.78H32.35v11.64H48.59v3.78H28.13Z"/><path class="cls-1" d="M75.4,244.94c-2.64,4.15-5.79,6.86-10.89,6.86-9.57,0-12.59-8.81-12.59-16.93,0-13.09,6.92-17,12.21-17,5.1,0,8.06,2.64,10.38,7l-3.84,2c-1.38-2.64-3.27-5-6.48-5-6.55,0-7.87,7.93-7.87,13s1.2,13,7.87,13c3.84,0,5.79-2.33,7.74-5.29Z"/><path class="cls-1" d="M84.08,218.44v22.34c0,4.78,1.38,7,5.73,7,5.29,0,6.42-2.33,6.42-7V218.44h4.22V242.8c0,4.34-3.08,9-10.32,9s-10.26-4.47-10.26-9.25V218.44Z"/><path class="cls-1" d="M107.12,218.44h11.14c5.48,0,9.82,2.58,9.82,8.94a9.73,9.73,0,0,1-6.67,9.19l8.06,13.28-3.65,2.2-8.37-14.85h-6.11v14h-4.22Zm9.76,15c4.09,0,6.8-2.33,6.8-6,0-3-1.76-5.16-5.54-5.16h-6.8v11.2Z"/><path class="cls-1" d="M134.12,218.44h20.46v3.78H138.34V232h13.41v3.78H138.34v11.64h16.24v3.78H134.12Z"/><path class="cls-2" d="M162.51,247.46h4.6V222.22h-4.6v-3.78H176v3.78h-4.66v25.24H176v3.78H162.51Z"/><path class="cls-2" d="M191.27,251.23h-4.22V218.44h10.2c7.62,0,10.57,4.15,10.57,8.94,0,6.92-4.91,9.76-9.5,9.76h-7Zm5.79-17.88c4.15,0,6.36-1.89,6.36-5.66,0-4.47-2.9-5.48-6.36-5.48h-5.79v11.14Z"/><path class="cls-3" d="M102.79,135.43A39.9,39.9,0,0,1,51.13,76.22"/><path class="cls-3" d="M134,111.88A52.87,52.87,0,0,1,29.36,101.23a53.53,53.53,0,0,1,.41-6.62"/><path class="cls-3" d="M146.16,80.06A67.35,67.35,0,0,1,23,133.32"/><path class="cls-3" d="M136.09,40.34a81.31,81.31,0,0,1-92.37,132.5"/><path class="cls-3" d="M91.66,7.43A94.27,94.27,0,0,1,91,195.09"/><path class="cls-2" d="M91,7.43a5.8,5.8,0,1,1-5.8-5.8A5.8,5.8,0,0,1,91,7.43"/><circle class="cls-4" cx="85.17" cy="7.43" r="5.8"/><path class="cls-2" d="M137.54,38.47a5.8,5.8,0,1,1-5.8-5.8,5.8,5.8,0,0,1,5.8,5.8"/><circle class="cls-4" cx="131.74" cy="38.47" r="5.8"/><path class="cls-2" d="M149.13,76.22a5.8,5.8,0,1,1-5.8-5.8,5.8,5.8,0,0,1,5.8,5.8"/><circle class="cls-4" cx="143.34" cy="76.22" r="5.8"/><path class="cls-2" d="M139.82,107.06a5.8,5.8,0,1,1-5.8-5.8,5.8,5.8,0,0,1,5.8,5.8"/><circle class="cls-4" cx="134.02" cy="107.06" r="5.8"/><path class="cls-2" d="M112.88,130.26a5.8,5.8,0,1,1-5.8-5.8,5.8,5.8,0,0,1,5.8,5.8"/><circle class="cls-4" cx="107.09" cy="130.26" r="5.8"/></g></g></svg>